<svg xmlns="http://www.w3.org/2000/svg" viewBox="0 0 800 400">
  <defs>
    <linearGradient id="g" x1="0" y1="0" x2="1" y2="1">
      <stop offset="0" stop-color="#00f2fe"/>
      <stop offset="1" stop-color="#4facfe"/>
    </linearGradient>
    <radialGradient id="bg" cx="0.7" cy="0.3" r="1">
      <stop offset="0" stop-color="#0d1830"/>
      <stop offset="1" stop-color="#050a16"/>
    </radialGradient>
  </defs>
  <rect width="800" height="400" fill="url(#bg)"/>
  <g stroke="url(#g)" stroke-opacity="0.18" fill="none">
    <path d="M0 320 Q200 260 400 300 T800 260"/>
    <path d="M0 350 Q200 300 400 340 T800 300"/>
  </g>
  <!-- idea bulb -->
  <g transform="translate(250,120)">
    <circle cx="0" cy="0" r="58" fill="none" stroke="url(#g)" stroke-width="3"/>
    <circle cx="0" cy="0" r="80" fill="none" stroke="url(#g)" stroke-opacity="0.25" stroke-width="1.5"/>
    <path d="M0 -34 a30 30 0 0 1 12 57 v9 h-24 v-9 a30 30 0 0 1 12 -57 z" fill="url(#g)" fill-opacity="0.85"/>
    <rect x="-9" y="36" width="18" height="6" rx="3" fill="url(#g)"/>
    <g stroke="url(#g)" stroke-width="2.5" stroke-linecap="round">
      <line x1="0" y1="-48" x2="0" y2="-60"/>
      <line x1="34" y1="-34" x2="43" y2="-43"/>
      <line x1="-34" y1="-34" x2="-43" y2="-43"/>
    </g>
  </g>
  <!-- insight bars -->
  <g transform="translate(460,270)" fill="url(#g)">
    <rect x="0"   y="-70"  width="34" height="70" rx="4" fill-opacity="0.45"/>
    <rect x="52"  y="-105" width="34" height="105" rx="4" fill-opacity="0.65"/>
    <rect x="104" y="-58"  width="34" height="58" rx="4" fill-opacity="0.45"/>
    <rect x="156" y="-135" width="34" height="135" rx="4" fill-opacity="0.9"/>
    <rect x="208" y="-90"  width="34" height="90" rx="4" fill-opacity="0.6"/>
  </g>
  <polyline points="477,185 529,150 581,196 633,120 685,165" fill="none" stroke="#fff" stroke-opacity="0.8" stroke-width="3" stroke-linecap="round" stroke-linejoin="round"/>
  <g fill="#fff" fill-opacity="0.85">
    <circle cx="477" cy="185" r="5"/><circle cx="529" cy="150" r="5"/><circle cx="581" cy="196" r="5"/><circle cx="633" cy="120" r="5"/><circle cx="685" cy="165" r="5"/>
  </g>
  <text x="250" y="255" text-anchor="middle" font-family="monospace" font-size="20" fill="#9ca3af">ideate → score → validate</text>
</svg>
